<?xml version="1.0" encoding="UTF-8" standalone="no"?>
<svg width="600" height="300" viewBox="0 0 600 300" xmlns="http://www.w3.org/2000/svg">
  <rect width="100%" height="100%" fill="white"/>
  
  <!-- Africa-like abstract shape -->
  <path d="M210 60
           C190 70, 180 100, 190 130
           C200 160, 190 190, 210 210
           C230 230, 260 220, 270 200
           C280 180, 300 170, 290 140
           C280 110, 290 90, 270 70
           C250 50, 230 50, 210 60 Z"
        fill="none" stroke="#1f3c88" stroke-width="5"/>

  <!-- Star -->
  <polygon points="260,85 266,100 282,100 269,110 274,125 260,115 246,125 251,110 238,100 254,100"
           fill="#1f3c88"/>

  <!-- Color swooshes -->
  <path d="M210 150 Q260 130 310 140" stroke="#2fbf71" stroke-width="10" fill="none" stroke-linecap="round"/>
  <path d="M210 165 Q260 150 320 160" stroke="#f4b400" stroke-width="10" fill="none" stroke-linecap="round"/>
  <path d="M210 180 Q260 170 330 185" stroke="#e63946" stroke-width="10" fill="none" stroke-linecap="round"/>

  <!-- Text -->
  <text x="180" y="260"
        font-family="Arial, Helvetica, sans-serif"
        font-size="48"
        font-weight="bold"
        fill="#1f3c88">
    Congomeet
  </text>
</svg>
